<svg xmlns="http://www.w3.org/2000/svg" data-name="Layer 1" viewBox="0 0 100 100" x="256px" y="256px" fill="#fff" stroke="#fff"><path style="opacity:1" d="M44.19275,27.17145a5.18537,5.18537,0,1,1,5.1853,5.1853A5.18529,5.18529,0,0,1,44.19275,27.17145Zm-3.8927,18.69049c2.88086-1.293,5.23413-.80237,5.23413,2.86151v24.471c0,4.88842,5.59644,6.09179,9.85889,3.45587a22.91459,22.91459,0,0,0,5.76916-5.33368A1.19481,1.19481,0,0,0,59.7,69.51892c-2.881,1.2937-5.23413.80243-5.23413-2.8609V42.18652c0-4.88787-5.59644-6.09179-9.85889-3.45532a22.91311,22.91311,0,0,0-5.76916,5.33307,1.19481,1.19481,0,0,0,1.46228,1.79767ZM5,50A45,45,0,1,1,50,95,45.05077,45.05077,0,0,1,5,50Zm6,0A39,39,0,1,0,50,11,39.0439,39.0439,0,0,0,11,50Z"/></svg>