<?xml version="1.0" encoding="UTF-8"?>
<!DOCTYPE svg PUBLIC "-//W3C//DTD SVG 1.1//EN" "http://www.w3.org/Graphics/SVG/1.1/DTD/svg11.dtd">
<svg xmlns="http://www.w3.org/2000/svg" version="1.1" xml:space="preserve" width="200" height="200" fill="#fff" stroke='white' stroke-width='5.12' style="shapeRendering:geometricPrecision; text-rendering:geometricPrecision; image-rendering:optimizeQuality; fill-rule:evenodd; clip-rule:evenodd" xmlns:xlink="http://www.w3.org/1999/xlink">
<g><path style="opacity:0.769" fill="#000000" d="M 131.5,23.5 C 137.758,23.1903 143.924,23.5236 150,24.5C 149.316,30.2408 147.983,35.9074 146,41.5C 144.644,42.3802 143.144,42.7135 141.5,42.5C 141.681,39.447 141.848,36.447 142,33.5C 112.845,53.4979 81.6781,69.9979 48.5,83C 46.5273,83.4955 44.5273,83.6621 42.5,83.5C 42.238,82.0222 42.5713,80.6888 43.5,79.5C 77.4276,66.0393 109.428,49.206 139.5,29C 137.109,28.7132 134.776,28.2132 132.5,27.5C 131.571,26.3112 131.238,24.9778 131.5,23.5 Z"/></g>
<g><path style="opacity:1" fill="#fff" d="M 39.5,27.5 C 40.8333,27.5 42.1667,27.5 43.5,27.5C 43.5,29.5 43.5,31.5 43.5,33.5C 42.1667,33.5 40.8333,33.5 39.5,33.5C 39.5,31.5 39.5,29.5 39.5,27.5 Z"/></g>
<g><path style="opacity:1" fill="#fff" d="M 31.5,35.5 C 33.5,35.5 35.5,35.5 37.5,35.5C 37.5,36.8333 37.5,38.1667 37.5,39.5C 35.5,39.5 33.5,39.5 31.5,39.5C 31.5,38.1667 31.5,36.8333 31.5,35.5 Z"/></g>
<g><path style="opacity:1" fill="#fff" d="M 45.5,35.5 C 47.5,35.5 49.5,35.5 51.5,35.5C 51.5,36.8333 51.5,38.1667 51.5,39.5C 49.5,39.5 47.5,39.5 45.5,39.5C 45.5,38.1667 45.5,36.8333 45.5,35.5 Z"/></g>
<g><path style="opacity:1" fill="#fff" d="M 39.5,41.5 C 40.8333,41.5 42.1667,41.5 43.5,41.5C 43.5,43.5 43.5,45.5 43.5,47.5C 42.1667,47.5 40.8333,47.5 39.5,47.5C 39.5,45.5 39.5,43.5 39.5,41.5 Z"/></g>
<g><path style="opacity:1" fill="#fff" d="M 133.5,49.5 C 137.5,49.5 141.5,49.5 145.5,49.5C 145.5,69.5 145.5,89.5 145.5,109.5C 141.5,109.5 137.5,109.5 133.5,109.5C 133.5,89.5 133.5,69.5 133.5,49.5 Z M 137.5,53.5 C 138.833,53.5 140.167,53.5 141.5,53.5C 141.5,70.8333 141.5,88.1667 141.5,105.5C 140.167,105.5 138.833,105.5 137.5,105.5C 137.5,88.1667 137.5,70.8333 137.5,53.5 Z"/></g>
<g><path style="opacity:1" fill="#fff" d="M 113.5,61.5 C 117.5,61.5 121.5,61.5 125.5,61.5C 125.5,77.5 125.5,93.5 125.5,109.5C 121.5,109.5 117.5,109.5 113.5,109.5C 113.5,93.5 113.5,77.5 113.5,61.5 Z M 117.5,65.5 C 118.833,65.5 120.167,65.5 121.5,65.5C 121.5,78.8333 121.5,92.1667 121.5,105.5C 120.167,105.5 118.833,105.5 117.5,105.5C 117.5,92.1667 117.5,78.8333 117.5,65.5 Z"/></g>
<g><path style="opacity:1" fill="#fff" d="M 93.5,73.5 C 97.5,73.5 101.5,73.5 105.5,73.5C 105.5,85.5 105.5,97.5 105.5,109.5C 101.5,109.5 97.5,109.5 93.5,109.5C 93.5,97.5 93.5,85.5 93.5,73.5 Z M 97.5,77.5 C 98.8333,77.5 100.167,77.5 101.5,77.5C 101.5,86.8333 101.5,96.1667 101.5,105.5C 100.167,105.5 98.8333,105.5 97.5,105.5C 97.5,96.1667 97.5,86.8333 97.5,77.5 Z"/></g>
<g><path style="opacity:1" fill="#fff" d="M 165.5,81.5 C 166.833,81.5 168.167,81.5 169.5,81.5C 169.5,83.5 169.5,85.5 169.5,87.5C 168.167,87.5 166.833,87.5 165.5,87.5C 165.5,85.5 165.5,83.5 165.5,81.5 Z"/></g>
<g><path style="opacity:1" fill="#fff" d="M 73.5,83.5 C 77.5,83.5 81.5,83.5 85.5,83.5C 85.5,92.1667 85.5,100.833 85.5,109.5C 81.5,109.5 77.5,109.5 73.5,109.5C 73.5,100.833 73.5,92.1667 73.5,83.5 Z M 77.5,87.5 C 78.8333,87.5 80.1667,87.5 81.5,87.5C 81.5,93.5 81.5,99.5 81.5,105.5C 80.1667,105.5 78.8333,105.5 77.5,105.5C 77.5,99.5 77.5,93.5 77.5,87.5 Z"/></g>
<g><path style="opacity:1" fill="#fff" d="M 157.5,89.5 C 159.5,89.5 161.5,89.5 163.5,89.5C 163.5,90.8333 163.5,92.1667 163.5,93.5C 161.5,93.5 159.5,93.5 157.5,93.5C 157.5,92.1667 157.5,90.8333 157.5,89.5 Z"/></g>
<g><path style="opacity:1" fill="#fff" d="M 171.5,89.5 C 173.5,89.5 175.5,89.5 177.5,89.5C 177.5,90.8333 177.5,92.1667 177.5,93.5C 175.5,93.5 173.5,93.5 171.5,93.5C 171.5,92.1667 171.5,90.8333 171.5,89.5 Z"/></g>
<g><path style="opacity:1" fill="#fff" d="M 53.5,93.5 C 57.5,93.5 61.5,93.5 65.5,93.5C 65.5,98.8333 65.5,104.167 65.5,109.5C 61.5,109.5 57.5,109.5 53.5,109.5C 53.5,104.167 53.5,98.8333 53.5,93.5 Z M 57.5,97.5 C 58.8333,97.5 60.1667,97.5 61.5,97.5C 61.5,100.167 61.5,102.833 61.5,105.5C 60.1667,105.5 58.8333,105.5 57.5,105.5C 57.5,102.833 57.5,100.167 57.5,97.5 Z"/></g>
<g><path style="opacity:1" fill="#fff" d="M 165.5,95.5 C 166.833,95.5 168.167,95.5 169.5,95.5C 169.5,97.5 169.5,99.5 169.5,101.5C 168.167,101.5 166.833,101.5 165.5,101.5C 165.5,99.5 165.5,97.5 165.5,95.5 Z"/></g>
<g><path style="opacity:1" fill="#fff" d="M 20.5,115.5 C 36.2192,119.795 51.7192,124.795 67,130.5C 72.81,125.595 79.4767,122.595 87,121.5C 91.2652,121.962 95.2652,123.296 99,125.5C 105.33,122.415 111.83,121.915 118.5,124C 123.363,126.263 128.029,128.763 132.5,131.5C 147.568,126.699 162.568,121.699 177.5,116.5C 179.439,118.122 179.772,119.956 178.5,122C 167.793,125.176 157.46,129.009 147.5,133.5C 150.765,142.128 153.932,150.795 157,159.5C 164.875,156.232 172.875,153.232 181,150.5C 183.157,151.385 183.99,153.052 183.5,155.5C 168.755,160.36 154.089,165.527 139.5,171C 133.346,173.242 127.679,176.242 122.5,180C 115.929,180.526 109.429,180.026 103,178.5C 100.888,179.608 99.0542,181.108 97.5,183C 92.8144,185.529 88.9811,184.696 86,180.5C 82.3071,182.017 78.8071,181.684 75.5,179.5C 68.5942,181.533 64.9276,178.866 64.5,171.5C 48.4387,164.702 32.1053,158.702 15.5,153.5C 15.0101,151.052 15.8434,149.385 18,148.5C 26.0943,151.308 34.0943,154.308 42,157.5C 45.0683,148.795 48.2349,140.128 51.5,131.5C 41.5404,127.009 31.2071,123.176 20.5,120C 19.2721,118.51 19.2721,117.01 20.5,115.5 Z M 83.5,126.5 C 86.7341,126.205 89.7341,126.871 92.5,128.5C 87.8549,131.977 83.3549,135.644 79,139.5C 76.9651,143.302 77.7984,146.469 81.5,149C 83.8333,149.667 86.1667,149.667 88.5,149C 95.6804,145.664 103.014,142.831 110.5,140.5C 116.874,141.451 123.207,142.618 129.5,144C 133.489,146.256 133.323,147.756 129,148.5C 121.591,147.348 114.257,146.015 107,144.5C 104.048,146.193 103.882,148.026 106.5,150C 114.819,151.426 123.152,152.76 131.5,154C 132.727,155.587 132.394,156.921 130.5,158C 122.202,157.756 114.035,156.589 106,154.5C 103.048,156.193 102.882,158.026 105.5,160C 112.875,161.118 120.209,162.451 127.5,164C 128.798,166.395 127.965,167.562 125,167.5C 119.176,166.446 113.343,165.446 107.5,164.5C 105.956,164.79 104.623,165.456 103.5,166.5C 98.4475,164.671 93.9475,162.005 90,158.5C 89.2753,159.059 88.4419,159.392 87.5,159.5C 85.2937,157.801 82.7937,156.801 80,156.5C 78.8333,156.667 77.6667,156.833 76.5,157C 73.5468,160.408 70.7135,163.908 68,167.5C 65.4372,166.259 62.9372,164.926 60.5,163.5C 63.5641,153.808 66.7307,144.141 70,134.5C 74.4807,131.681 78.9807,129.014 83.5,126.5 Z M 108.5,127.5 C 116.958,127.897 123.958,131.23 129.5,137.5C 128.833,137.833 128.167,138.167 127.5,138.5C 120.278,136.462 112.945,135.628 105.5,136C 99.5,138.667 93.5,141.333 87.5,144C 85.597,144.774 83.9304,144.44 82.5,143C 90.1814,136 98.8481,130.833 108.5,127.5 Z M 56.5,132.5 C 59.475,132.713 62.1416,133.713 64.5,135.5C 61.2202,144.004 58.5535,152.671 56.5,161.5C 52.9419,161.595 49.9419,160.428 47.5,158C 50.6075,149.509 53.6075,141.009 56.5,132.5 Z M 139.5,134.5 C 140.822,134.33 141.989,134.663 143,135.5C 146.135,144.094 148.968,152.761 151.5,161.5C 149.213,161.724 147.047,162.391 145,163.5C 144.228,163.355 143.561,163.022 143,162.5C 140.158,153.973 137.324,145.473 134.5,137C 136.315,136.243 137.981,135.41 139.5,134.5 Z M 133.5,167.5 C 133.03,164.654 133.863,162.321 136,160.5C 140.118,164.694 139.285,167.027 133.5,167.5 Z M 78.5,161.5 C 79.5,161.5 80.5,161.5 81.5,161.5C 80.1664,167.347 76.9997,172.013 72,175.5C 71.3076,174.975 70.8076,174.308 70.5,173.5C 73.1769,169.471 75.8435,165.471 78.5,161.5 Z M 88.5,164.5 C 89.5,164.5 90.5,164.5 91.5,164.5C 90.65,168.55 88.65,172.05 85.5,175C 84.3914,175.638 83.2247,176.138 82,176.5C 80.7425,176.15 80.4092,175.483 81,174.5C 83.7167,171.29 86.2167,167.956 88.5,164.5 Z M 97.5,169.5 C 99.3628,169.846 100.196,170.846 100,172.5C 97.9824,174.35 96.1491,176.35 94.5,178.5C 92.9825,179.911 91.6492,179.744 90.5,178C 92.6677,175.002 95.0011,172.169 97.5,169.5 Z M 105.5,170.5 C 105.917,169.876 106.584,169.543 107.5,169.5C 111.832,170.333 116.165,171.166 120.5,172C 121.615,174.894 120.448,176.061 117,175.5C 113.527,174.837 110.027,174.504 106.5,174.5C 106.768,172.901 106.434,171.568 105.5,170.5 Z"/></g>
</svg>
