<?xml version="1.0" encoding="UTF-8"?>
<!DOCTYPE svg PUBLIC "-//W3C//DTD SVG 1.1//EN" "http://www.w3.org/Graphics/SVG/1.1/DTD/svg11.dtd">
<svg xmlns="http://www.w3.org/2000/svg" version="1.1" width="422px" height="512px" style="shapeRendering:geometricPrecision; text-rendering:geometricPrecision; image-rendering:optimizeQuality; fill-rule:evenodd; clip-rule:evenodd" xmlns:xlink="http://www.w3.org/1999/xlink">
<g><path style="opacity:0.972" fill="#fff" d="M 150.5,-0.5 C 191.833,-0.5 233.167,-0.5 274.5,-0.5C 278.762,1.9262 282.262,5.25954 285,9.5C 286.391,16.7458 286.891,24.0791 286.5,31.5C 298.505,31.3335 310.505,31.5001 322.5,32C 328.925,33.4269 333.092,37.2602 335,43.5C 335.499,48.8229 335.666,54.1563 335.5,59.5C 357.836,59.3334 380.169,59.5 402.5,60C 412.247,62.2506 418.58,68.0839 421.5,77.5C 421.5,222.167 421.5,366.833 421.5,511.5C 286.5,511.5 151.5,511.5 16.5,511.5C 8.5,508.167 2.83333,502.5 -0.5,494.5C -0.5,355.5 -0.5,216.5 -0.5,77.5C 2.42863,68.0748 8.76196,62.2415 18.5,60C 40.8308,59.5 63.1642,59.3334 85.5,59.5C 85.334,54.1563 85.5006,48.8229 86,43.5C 87.9081,37.2602 92.0747,33.4269 98.5,32C 111.829,31.5001 125.163,31.3334 138.5,31.5C 138.104,23.747 138.604,16.0804 140,8.5C 142.505,4.18881 146.005,1.18881 150.5,-0.5 Z M 160.5,21.5 C 194.833,21.5 229.167,21.5 263.5,21.5C 263.334,29.1739 263.5,36.8406 264,44.5C 264.73,48.8963 267.23,51.7296 271.5,53C 285.163,53.4999 298.829,53.6666 312.5,53.5C 312.5,67.8333 312.5,82.1667 312.5,96.5C 244.5,96.5 176.5,96.5 108.5,96.5C 108.5,82.1667 108.5,67.8333 108.5,53.5C 124.238,53.9533 139.904,53.4533 155.5,52C 157.378,50.4571 158.878,48.6238 160,46.5C 160.5,38.1733 160.666,29.84 160.5,21.5 Z M 23.5,81.5 C 44.1667,81.5 64.8333,81.5 85.5,81.5C 85.3336,90.1731 85.5002,98.8397 86,107.5C 87.8333,113.333 91.6667,117.167 97.5,119C 172.833,119.667 248.167,119.667 323.5,119C 328.91,117.257 332.744,113.757 335,108.5C 335.5,99.5062 335.666,90.5062 335.5,81.5C 356.546,81.1782 377.546,81.5115 398.5,82.5C 399.5,218.165 399.833,353.832 399.5,489.5C 273.597,489.832 147.763,489.499 22,488.5C 21.8333,420.833 21.6667,353.167 21.5,285.5C 21.5033,217.291 22.17,149.291 23.5,81.5 Z M 205.5,190.5 C 230.726,191.622 241.226,204.622 237,229.5C 228.998,246.062 216.165,251.562 198.5,246C 179.935,234.442 176.435,219.275 188,200.5C 192.946,195.449 198.779,192.115 205.5,190.5 Z"/></g>
<g><path style="opacity:0.962" fill="#fff" d="M 199.5,145.5 C 206.508,145.334 213.508,145.5 220.5,146C 222.049,147.214 223.215,148.714 224,150.5C 224.499,155.155 224.666,159.821 224.5,164.5C 229.311,165.271 233.811,166.938 238,169.5C 241.221,166.279 244.387,163.113 247.5,160C 251.207,159.004 254.541,159.67 257.5,162C 261.333,165.833 265.167,169.667 269,173.5C 269.79,176.634 269.457,179.634 268,182.5C 265.167,185.333 262.333,188.167 259.5,191C 261.901,194.969 263.901,199.135 265.5,203.5C 269.713,203.563 274.046,203.729 278.5,204C 280.286,204.785 281.786,205.951 283,207.5C 283.853,212.297 284.353,217.13 284.5,222C 284.714,225.569 284.047,228.902 282.5,232C 276.987,233.792 271.32,234.958 265.5,235.5C 263.833,239.5 262.167,243.5 260.5,247.5C 262.522,250.356 265.022,252.689 268,254.5C 271.333,258.5 271.333,262.5 268,266.5C 264.167,270.333 260.333,274.167 256.5,278C 254.635,279.301 252.635,279.635 250.5,279C 246.069,276.404 242.069,273.238 238.5,269.5C 234.467,272.019 230.134,273.686 225.5,274.5C 225.5,285.167 225.5,295.833 225.5,306.5C 260.587,306.013 295.587,306.513 330.5,308C 333.467,310.1 335.3,312.934 336,316.5C 336.667,334.5 336.667,352.5 336,370.5C 332.563,380.301 326.063,383.134 316.5,379C 314.622,377.457 313.122,375.624 312,373.5C 311.5,359.504 311.333,345.504 311.5,331.5C 282.833,331.5 254.167,331.5 225.5,331.5C 225.667,344.171 225.5,356.838 225,369.5C 220.604,378.971 213.437,381.804 203.5,378C 200.527,376.235 198.36,373.735 197,370.5C 196.5,357.504 196.333,344.504 196.5,331.5C 167.5,331.5 138.5,331.5 109.5,331.5C 109.667,345.504 109.5,359.504 109,373.5C 103.628,381.849 96.7949,383.349 88.5,378C 86.9315,375.696 85.7648,373.196 85,370.5C 84.3333,352.833 84.3333,335.167 85,317.5C 85.4123,313.509 87.2456,310.342 90.5,308C 125.413,306.513 160.413,306.013 195.5,306.5C 195.666,296.161 195.5,285.828 195,275.5C 190.582,273.694 186.249,271.694 182,269.5C 178.779,272.721 175.613,275.887 172.5,279C 169.366,279.79 166.366,279.457 163.5,278C 159.333,273.833 155.167,269.667 151,265.5C 150.333,263.167 150.333,260.833 151,258.5C 153.797,254.701 156.964,251.201 160.5,248C 157.988,244.142 156.155,239.975 155,235.5C 149.917,235.977 144.75,235.477 139.5,234C 138.667,233.167 137.833,232.333 137,231.5C 135.941,224.52 135.607,217.52 136,210.5C 136.785,208.714 137.951,207.214 139.5,206C 144.5,205.167 149.5,204.333 154.5,203.5C 156.069,199.625 157.736,195.792 159.5,192C 157.05,188.547 154.217,185.38 151,182.5C 149.033,179.002 149.367,175.668 152,172.5C 155.833,168.667 159.667,164.833 163.5,161C 165.365,159.699 167.365,159.365 169.5,160C 173.931,162.596 177.931,165.762 181.5,169.5C 185.533,166.981 189.866,165.314 194.5,164.5C 194.334,159.489 194.501,154.489 195,149.5C 196.397,147.93 197.897,146.596 199.5,145.5 Z M 205.5,190.5 C 198.779,192.115 192.946,195.449 188,200.5C 176.435,219.275 179.935,234.442 198.5,246C 216.165,251.562 228.998,246.062 237,229.5C 241.226,204.622 230.726,191.622 205.5,190.5 Z"/></g>
<g><path style="opacity:0.96" fill="#fff" d="M 90.5,390.5 C 113.801,389.302 124.968,400.302 124,423.5C 118.886,439.264 108.053,446.097 91.5,444C 75.1362,438.787 68.3028,427.62 71,410.5C 74.3514,400.65 80.8514,393.983 90.5,390.5 Z"/></g>
<g><path style="opacity:0.959" fill="#fff" d="M 203.5,390.5 C 225.79,388.96 236.957,399.294 237,421.5C 232.572,438.81 221.405,446.31 203.5,444C 183.892,435.851 178.392,422.017 187,402.5C 191.279,396.707 196.779,392.707 203.5,390.5 Z"/></g>
<g><path style="opacity:0.96" fill="#fff" d="M 316.5,390.5 C 333.053,388.353 344.22,395.02 350,410.5C 352.527,430.796 343.694,442.13 323.5,444.5C 303.804,442.298 294.971,431.298 297,411.5C 299.923,401.08 306.423,394.08 316.5,390.5 Z"/></g>
</svg>
