<?xml version="1.0" standalone="no"?>
<!DOCTYPE svg PUBLIC "-//W3C//DTD SVG 20010904//EN"
 "http://www.w3.org/TR/2001/REC-SVG-20010904/DTD/svg10.dtd">
<svg version="1.0" xmlns="http://www.w3.org/2000/svg"
 width="379.000000pt" height="304.000000pt" viewBox="0 0 379.000000 304.000000"
 preserveAspectRatio="xMidYMid meet">

<g transform="translate(0.000000,304.000000) scale(0.100000,-0.100000)"
fill="#ffffff" stroke="none">
<path d="M1850 2629 c-267 -115 -507 -219 -535 -230 -87 -36 -186 -91 -196
-110 -6 -12 -9 -290 -7 -782 l3 -762 23 -60 c48 -128 137 -223 247 -264 48
-18 78 -21 214 -21 87 0 246 -3 354 -7 l197 -6 0 -94 c0 -55 4 -93 10 -93 6 0
10 3 10 8 0 4 28 38 63 76 l63 69 63 -76 c35 -43 68 -77 72 -77 5 0 9 45 9
100 l0 99 83 3 82 3 0 930 0 930 -120 5 -120 5 -3 283 c-2 216 -5 282 -15 281
-6 0 -230 -95 -497 -210z m-70 -307 l0 -38 -239 -102 c-132 -56 -242 -102
-246 -102 -3 0 -5 17 -3 37 l3 37 235 102 c129 57 238 103 243 103 4 1 7 -16
7 -37z m-2 -169 l-3 -38 -235 -102 c-129 -56 -238 -102 -242 -102 -5 -1 -8 16
-8 37 l0 38 88 38 c186 81 387 166 395 166 5 0 7 -17 5 -37z m752 -583 l0
-620 -497 1 -498 1 82 38 c45 21 191 86 325 144 134 59 281 125 328 149 l85
42 3 433 2 432 85 0 85 0 0 -620z m-220 -149 l0 -38 -267 -118 c-701 -308
-652 -283 -700 -359 -30 -46 -40 -124 -23 -185 15 -58 102 -147 151 -155 19
-3 178 -9 354 -13 l320 -8 3 -39 3 -38 -338 4 c-383 5 -387 6 -478 89 -72 67
-99 127 -99 224 0 139 61 231 194 292 382 175 848 380 868 382 8 1 12 -13 12
-38z m218 -593 l3 -38 -565 0 c-565 0 -566 0 -566 21 0 11 5 29 10 40 11 19
25 19 563 17 l552 -3 3 -37z m-380 -155 l-3 -38 -316 -3 -316 -2 -43 31 c-33
24 -39 33 -29 40 8 5 171 9 362 9 l348 0 -3 -37z m382 -3 l0 -40 -45 0 -45 0
0 40 0 40 45 0 45 0 0 -40z m-2 -162 l3 -38 -45 0 -46 0 0 43 0 43 43 -5 c40
-6 42 -8 45 -43z"/>
</g>
</svg>
