<?xml version="1.0" standalone="no"?>
<!DOCTYPE svg PUBLIC "-//W3C//DTD SVG 20010904//EN"
 "http://www.w3.org/TR/2001/REC-SVG-20010904/DTD/svg10.dtd">
<svg version="1.0" xmlns="http://www.w3.org/2000/svg"
 width="697.000000pt" height="809.000000pt" viewBox="0 0 697.000000 809.000000"
 preserveAspectRatio="xMidYMid meet">

<g transform="translate(0.000000,809.000000) scale(0.100000,-0.100000)"
fill="#ffffff" stroke="none">
<path d="M3320 8079 c-738 -32 -1422 -293 -2025 -773 -138 -109 -442 -417
-549 -556 -452 -586 -693 -1228 -736 -1965 -36 -604 108 -1261 393 -1795 387
-727 980 -1269 1754 -1603 l121 -52 607 -660 c334 -363 610 -661 614 -663 4
-1 285 300 625 670 423 459 630 678 655 690 373 175 451 217 647 350 199 135
333 246 514 427 172 173 270 288 397 469 348 497 563 1090 614 1698 17 200 6
590 -21 769 -81 536 -265 1019 -552 1448 -515 769 -1330 1313 -2228 1487 -173
33 -317 50 -470 56 -80 2 -158 6 -175 7 -16 2 -100 0 -185 -4z m563 -828 c876
-140 1612 -680 1997 -1465 90 -184 137 -306 185 -481 145 -530 121 -1100 -70
-1621 -85 -234 -259 -542 -420 -744 -82 -104 -272 -297 -385 -392 -366 -308
-837 -517 -1340 -595 -162 -25 -567 -25 -730 0 -609 94 -1113 348 -1540 776
-127 128 -214 234 -325 401 -222 333 -357 685 -422 1100 -26 165 -25 586 1
755 188 1227 1162 2157 2391 2284 147 16 510 5 658 -18z"/>
<path d="M3675 6543 c-150 -35 -235 -69 -361 -144 -118 -70 -142 -89 -209
-167 -42 -48 -102 -130 -133 -182 -31 -52 -57 -97 -59 -99 -1 -2 -37 6 -80 18
-113 33 -428 41 -598 16 -66 -10 -133 -24 -149 -32 -16 -8 -72 -47 -124 -85
l-94 -70 -55 -116 -55 -117 -15 -170 c-17 -192 -6 -344 28 -424 10 -24 19 -45
19 -46 0 -2 -51 -4 -112 -6 -98 -4 -117 -7 -145 -27 -42 -30 -57 -78 -50 -165
4 -66 7 -73 41 -104 l36 -33 1930 0 c2122 0 1972 -4 2005 60 18 36 20 165 2
199 -19 37 -60 63 -110 68 l-45 5 -4 82 c-4 70 -13 103 -68 245 -61 158 -67
168 -136 244 -78 86 -216 191 -273 207 -20 6 -104 21 -186 33 l-151 22 -22
180 c-27 211 -42 275 -78 327 -38 55 -147 155 -229 210 -62 42 -80 49 -165 63
-88 14 -308 19 -355 8z m332 -277 c58 -10 82 -21 131 -57 33 -25 81 -68 106
-95 l45 -51 20 -154 c12 -92 16 -160 11 -169 -5 -10 -44 -26 -93 -39 -62 -16
-120 -43 -213 -97 -107 -61 -142 -88 -207 -156 -43 -46 -86 -95 -95 -110 -9
-16 -19 -28 -23 -28 -4 0 -29 37 -55 82 -27 45 -92 134 -147 198 -89 105 -107
121 -209 182 -60 36 -114 70 -119 75 -11 11 39 90 111 176 96 114 333 235 490
250 78 8 179 5 247 -7z m-1142 -508 c88 -27 139 -52 255 -121 130 -78 153 -95
217 -170 90 -105 192 -272 213 -351 16 -55 16 -69 3 -141 -8 -44 -17 -86 -19
-92 -3 -10 -94 -13 -412 -13 -225 0 -530 -3 -679 -7 l-270 -6 -56 99 c-71 127
-80 184 -62 397 12 135 16 156 50 230 34 77 41 85 110 135 65 46 84 54 157 67
57 10 129 13 233 10 135 -3 161 -7 260 -37z m1789 -219 c63 -10 85 -18 137
-54 33 -24 85 -70 114 -103 47 -52 61 -78 110 -205 47 -127 55 -156 55 -216 0
-38 -3 -76 -6 -85 -6 -14 -74 -16 -670 -16 l-663 0 5 33 c26 157 76 260 190
395 47 55 82 83 171 136 189 114 347 146 557 115z"/>
<path d="M1660 4456 c-18 -47 -15 -53 55 -110 l70 -58 22 -91 c15 -65 22 -124
23 -200 0 -104 2 -112 41 -205 23 -53 66 -142 97 -197 112 -202 326 -378 602
-494 120 -50 132 -53 295 -72 142 -15 245 -19 629 -19 564 0 702 9 889 57 171
45 280 103 447 241 93 77 128 114 186 196 62 89 74 114 102 211 77 272 92 341
92 424 0 79 1 84 40 139 21 31 64 86 94 122 l55 65 -557 6 c-306 3 -1145 7
-1865 8 l-1307 1 -10 -24z"/>
</g>
</svg>
