<?xml version="1.0" encoding="UTF-8"?>
<!DOCTYPE svg PUBLIC "-//W3C//DTD SVG 1.1//EN" "http://www.w3.org/Graphics/SVG/1.1/DTD/svg11.dtd">
<svg xmlns="http://www.w3.org/2000/svg" version="1.1" width="1000px" height="1080px" style="shapeRendering:geometricPrecision; text-rendering:geometricPrecision; image-rendering:optimizeQuality; fill-rule:evenodd; clip-rule:evenodd" xmlns:xlink="http://www.w3.org/1999/xlink">
<g><path style="opacity:1;" fill="transparent" d="M -0.5,-0.5 C 332.833,-0.5 666.167,-0.5 999.5,-0.5C 999.5,332.833 999.5,666.167 999.5,999.5C 666.167,999.5 332.833,999.5 -0.5,999.5C -0.5,666.167 -0.5,332.833 -0.5,-0.5 Z"/></g>
<g><path style="opacity:1; stroke-width: 50;" fill="transparent" stroke="#fff" d="M 849.5,17.5 C 896.857,15.7464 930.69,36.0798 951,78.5C 965.648,121.882 956.148,159.049 922.5,190C 897.853,208.744 870.187,215.411 839.5,210C 830.856,208.009 822.689,204.842 815,200.5C 763.333,260.833 711.667,321.167 660,381.5C 674.788,410.213 676.454,439.88 665,470.5C 641.74,515.382 604.907,534.215 554.5,527C 511.85,515.015 486.683,487.181 479,443.5C 476.409,415.929 483.576,391.262 500.5,369.5C 476.35,343.516 452.016,317.682 427.5,292C 421.856,294.317 416.19,296.984 410.5,300C 364.785,315.313 326.619,304.479 296,267.5C 275.133,236.344 271.8,203.344 286,168.5C 307.166,128.827 340.333,110.327 385.5,113C 433.106,121.272 461.606,149.106 471,196.5C 473.02,216.867 469.52,236.2 460.5,254.5C 487.476,283.643 514.976,312.31 543,340.5C 563.227,332.999 583.727,332.499 604.5,339C 611.213,341.569 617.88,343.903 624.5,346C 675.333,286.5 726.167,227 777,167.5C 775.898,162.273 773.898,157.273 771,152.5C 755.849,110.978 763.682,74.478 794.5,43C 810.388,29.0536 828.721,20.5536 849.5,17.5 Z"/></g>
<g><path style="opacity:1; stroke-width: 40;" fill="transparent" stroke="#fff" d="M 848.5,53.5 C 885.362,50.6618 909.529,66.6618 921,101.5C 925.431,135.143 912.265,158.976 881.5,173C 851.472,181.769 827.306,173.602 809,148.5C 790.747,113.954 797.247,85.1209 828.5,62C 834.92,58.282 841.586,55.4487 848.5,53.5 Z"/></g>
<g><path style="opacity:1; stroke-width: 40;" fill="transparent" stroke="#fff" d="M 363.5,148.5 C 399.888,145.936 423.722,161.936 435,196.5C 439.019,231.986 424.519,256.152 391.5,269C 364.023,275.286 341.523,267.453 324,245.5C 305.237,213.317 309.737,184.817 337.5,160C 345.457,154.302 354.124,150.469 363.5,148.5 Z"/></g>
<g><path style="opacity:1; stroke-width: 40;" fill="transparent" stroke="#fff" d="M 563.5,370.5 C 602.578,367.595 627.078,384.929 637,422.5C 639.241,453.53 626.408,475.697 598.5,489C 562.674,499.664 536.174,488.497 519,455.5C 508.364,425.419 515.53,400.586 540.5,381C 547.76,376.366 555.427,372.866 563.5,370.5 Z"/></g>
<g><path style="opacity:1; stroke-width: 40;" fill="transparent" stroke="#fff" d="M 52.5,514.5 C 99.5012,514.333 146.501,514.5 193.5,515C 202.753,521.012 206.419,529.512 204.5,540.5C 233.848,540.209 263.182,540.709 292.5,542C 345.978,547.573 390.978,569.906 427.5,609C 444.378,620.406 463.044,627.072 483.5,629C 513.151,632.068 542.818,632.068 572.5,629C 588.167,628.333 603.833,628.333 619.5,629C 652.86,634.917 670.026,654.75 671,688.5C 667.693,710.675 655.193,724.175 633.5,729C 624.853,729.915 616.186,730.582 607.5,731C 531.821,732.855 456.154,735.188 380.5,738C 372.552,749.45 374.219,759.117 385.5,767C 460.337,767.216 535.17,767.716 610,768.5C 624.664,769.55 638.498,766.717 651.5,760C 664.072,751.431 676.072,742.097 687.5,732C 692.577,728.599 697.911,725.599 703.5,723C 773.422,695.804 843.422,668.804 913.5,642C 928.353,636.476 942.687,637.476 956.5,645C 967.497,653.156 969.331,662.99 962,674.5C 950.551,687.613 937.051,698.113 921.5,706C 800.833,766.333 680.167,826.667 559.5,887C 523.794,895.447 487.794,897.114 451.5,892C 371.613,866.204 291.946,839.704 212.5,812.5C 214.897,826.571 209.897,837.738 197.5,846C 194.226,847.202 190.893,848.202 187.5,849C 171.46,849.904 155.46,849.57 139.5,848C 130.989,845.155 123.822,840.321 118,833.5C 74.2174,760.161 44.2174,681.494 28,597.5C 25.0125,580.272 23.3458,562.938 23,545.5C 27.2527,529.75 37.0861,519.416 52.5,514.5 Z"/></g>

</svg>
