<?xml version="1.0" encoding="UTF-8"?>
<!DOCTYPE svg PUBLIC "-//W3C//DTD SVG 1.1//EN" "http://www.w3.org/Graphics/SVG/1.1/DTD/svg11.dtd">
<svg xmlns="http://www.w3.org/2000/svg" version="1.1" width="512px" height="512px" stroke="#fff" style="shapeRendering:geometricPrecision; text-rendering:geometricPrecision; image-rendering:optimizeQuality; fill-rule:evenodd; clip-rule:evenodd" xmlns:xlink="http://www.w3.org/1999/xlink">
<g><path style="opacity:1" fill="#fff" d="M 511.5,147.5 C 511.5,240.833 511.5,334.167 511.5,427.5C 504.787,454.714 487.787,471.881 460.5,479C 392.197,480.157 323.863,480.657 255.5,480.5C 187.137,480.657 118.803,480.157 50.5,479C 23.2132,471.881 6.21322,454.714 -0.5,427.5C -0.5,334.167 -0.5,240.833 -0.5,147.5C 0.961599,146.542 2.29493,145.376 3.5,144C 50.1655,143.5 96.8321,143.333 143.5,143.5C 143.333,112.832 143.5,82.1649 144,51.5C 145.889,48.3112 148.722,46.8112 152.5,47C 187,46.8333 221.5,46.6667 256,46.5C 291.879,46.3461 327.712,46.8461 363.5,48C 365.049,49.214 366.215,50.714 367,52.5C 367.5,82.8315 367.667,113.165 367.5,143.5C 414.168,143.333 460.835,143.5 507.5,144C 508.705,145.376 510.038,146.542 511.5,147.5 Z M 160.5,63.5 C 223.833,63.5 287.167,63.5 350.5,63.5C 350.5,90.1667 350.5,116.833 350.5,143.5C 345.833,143.5 341.167,143.5 336.5,143.5C 336.667,123.831 336.5,104.164 336,84.5C 335.226,82.0607 333.726,80.2273 331.5,79C 306.333,78.8333 281.167,78.6667 256,78.5C 230.082,78.3418 204.248,78.8418 178.5,80C 177.299,80.9025 176.465,82.0692 176,83.5C 175.5,103.497 175.333,123.497 175.5,143.5C 170.5,143.5 165.5,143.5 160.5,143.5C 160.5,116.833 160.5,90.1667 160.5,63.5 Z M 192.5,95.5 C 234.833,95.5 277.167,95.5 319.5,95.5C 319.5,111.5 319.5,127.5 319.5,143.5C 277.167,143.5 234.833,143.5 192.5,143.5C 192.5,127.5 192.5,111.5 192.5,95.5 Z M 15.5,160.5 C 175.5,160.5 335.5,160.5 495.5,160.5C 495.5,208.167 495.5,255.833 495.5,303.5C 455.167,303.5 414.833,303.5 374.5,303.5C 370.693,260.552 350.359,228.052 313.5,206C 275.327,187.051 236.994,186.718 198.5,205C 160.513,226.772 139.513,259.605 135.5,303.5C 95.5,303.5 55.5,303.5 15.5,303.5C 15.5,255.833 15.5,208.167 15.5,160.5 Z M 242.5,208.5 C 294.066,205.853 330.566,227.853 352,274.5C 368.122,326.804 353.955,368.638 309.5,400C 267.174,422.732 226.841,419.732 188.5,391C 153.187,357.455 143.687,317.621 160,271.5C 176.563,236.139 204.063,215.139 242.5,208.5 Z M 15.5,320.5 C 55.5,320.5 95.5,320.5 135.5,320.5C 142.148,376.985 172.815,413.152 227.5,429C 278.824,438.568 320.658,423.068 353,382.5C 366.139,363.92 373.639,343.254 375.5,320.5C 415.5,320.5 455.5,320.5 495.5,320.5C 495.93,355.524 495.43,390.524 494,425.5C 488.373,447.129 474.539,459.629 452.5,463C 321.167,463.667 189.833,463.667 58.5,463C 36.4605,459.629 22.6272,447.129 17,425.5C 15.5627,390.526 15.0627,355.526 15.5,320.5 Z"/></g>
<g><path style="opacity:19" fill="#fff" d="M 259.5,238.5 C 273.12,238.759 284.787,243.592 294.5,253C 295.517,254.049 295.684,255.216 295,256.5C 291.966,260.529 288.633,264.196 285,267.5C 267.422,250.639 251.756,252.306 238,272.5C 235.56,277.047 233.393,281.713 231.5,286.5C 244.817,287.499 258.15,287.833 271.5,287.5C 270.076,293.021 268.076,298.354 265.5,303.5C 253.185,304.499 240.851,304.832 228.5,304.5C 228.5,309.5 228.5,314.5 228.5,319.5C 242.504,319.333 256.504,319.5 270.5,320C 268.361,325.416 266.028,330.749 263.5,336C 253.172,336.5 242.839,336.666 232.5,336.5C 236.437,353.098 246.604,363.431 263,367.5C 267.384,366.594 271.551,365.094 275.5,363C 278.678,360.486 281.844,357.986 285,355.5C 288.633,358.804 291.966,362.471 295,366.5C 293.073,370.779 289.906,374.279 285.5,377C 258.518,389.674 237.351,383.174 222,357.5C 218.577,350.892 215.743,344.059 213.5,337C 205.507,336.5 197.507,336.334 189.5,336.5C 191.5,330.833 193.5,325.167 195.5,319.5C 200.5,319.5 205.5,319.5 210.5,319.5C 210.5,314.5 210.5,309.5 210.5,304.5C 204.167,304.5 197.833,304.5 191.5,304.5C 192.895,298.987 194.895,293.654 197.5,288.5C 202.833,287.833 208.167,287.167 213.5,286.5C 218.273,267.915 228.607,253.415 244.5,243C 249.482,241.01 254.482,239.51 259.5,238.5 Z"/></g>
</svg>
