<?xml version="1.0" standalone="no"?>
<!DOCTYPE svg PUBLIC "-//W3C//DTD SVG 20010904//EN"
 "http://www.w3.org/TR/2001/REC-SVG-20010904/DTD/svg10.dtd">
<svg version="1.0" xmlns="http://www.w3.org/2000/svg"
 width="32" height="32" viewBox="0 0 512.000000 512.000000"
 preserveAspectRatio="xMidYMid meet">

<g transform="translate(0.000000,512.000000) scale(0.100000,-0.100000)"
fill="#ffffff" stroke="#fff" stroke-width="150">
<path d="M1973 4179 c-69 -27 -147 -110 -168 -181 -10 -35 -15 -94 -15 -179
l0 -128 -452 -3 -453 -3 -55 -31 c-60 -33 -112 -99 -130 -162 -6 -23 -10 -204
-10 -463 0 -419 0 -426 21 -445 11 -10 39 -24 62 -29 l42 -11 5 -714 c6 -790
2 -746 71 -825 19 -21 56 -49 84 -61 l50 -24 1524 0 c1139 0 1534 3 1563 12
50 15 122 78 151 132 22 41 22 42 27 760 l5 719 49 12 c27 7 56 21 63 31 10
14 13 110 13 458 l0 441 -24 51 c-13 27 -43 67 -67 87 -76 65 -91 67 -575 67
l-431 0 -5 143 c-4 115 -8 151 -25 188 -28 63 -81 119 -140 149 l-48 25 -540
2 c-520 2 -542 1 -592 -18z m1128 -142 c19 -12 44 -42 57 -67 19 -38 22 -60
22 -162 l0 -118 -625 0 -625 0 0 128 c0 112 3 131 21 162 21 34 47 58 79 72 8
4 245 7 526 7 l511 1 34 -23z m1109 -502 c15 -8 38 -27 49 -41 20 -26 21 -36
21 -419 l0 -393 -87 -21 c-49 -12 -380 -96 -737 -187 -356 -90 -650 -164 -652
-164 -2 0 -4 17 -4 38 0 47 -36 119 -73 146 -25 18 -46 21 -165 24 -130 3
-139 2 -171 -20 -51 -35 -75 -73 -81 -131 -3 -29 -10 -52 -15 -51 -6 1 -337
84 -737 185 l-728 184 0 385 c0 368 1 386 20 418 40 65 -75 61 1708 62 1414 0
1627 -2 1652 -15z m-2710 -1165 c283 -72 580 -147 660 -168 l145 -37 5 -112
c6 -126 17 -151 86 -190 34 -20 53 -23 155 -23 102 0 121 3 159 23 68 36 90
86 90 206 l0 96 668 168 c367 92 670 168 675 167 4 0 7 -305 7 -677 0 -653 -1
-679 -19 -707 -11 -16 -30 -35 -43 -42 -18 -11 -324 -13 -1534 -14 l-1511 0
-28 22 c-56 44 -55 31 -55 753 0 525 3 665 13 665 6 0 244 -58 527 -130z
m1155 -190 l0 -195 -100 0 -100 0 -3 198 -2 198 102 -3 103 -3 0 -195z"/>
</g>
</svg>
