<?xml version="1.0" encoding="UTF-8"?>
<!DOCTYPE svg PUBLIC "-//W3C//DTD SVG 1.1//EN" "http://www.w3.org/Graphics/SVG/1.1/DTD/svg11.dtd">
<svg xmlns="http://www.w3.org/2000/svg" version="1.1" width="560px" height="560px" style="shapeRendering:geometricPrecision; text-rendering:geometricPrecision; image-rendering:optimizeQuality; fill-rule:evenodd; clip-rule:evenodd" xmlns:xlink="http://www.w3.org/1999/xlink">
<g><path style="opacity:0.8" fill="#fff" d="M 271.5,-0.5 C 276.833,-0.5 282.167,-0.5 287.5,-0.5C 322.607,20.2258 357.94,40.7258 393.5,61C 397.092,64.0157 399.258,67.849 400,72.5C 400.333,81.8333 400.667,91.1667 401,100.5C 428.759,117.299 456.926,133.465 485.5,149C 493.425,153.21 500.925,158.043 508,163.5C 509.275,165.717 510.275,168.051 511,170.5C 511.167,211.837 511.667,253.171 512.5,294.5C 521.265,298.962 529.431,304.296 537,310.5C 538.275,312.717 539.275,315.051 540,317.5C 540.667,359.167 540.667,400.833 540,442.5C 539.296,446.625 537.463,450.125 534.5,453C 499.135,473.347 463.801,493.68 428.5,514C 423.592,516.486 418.592,516.819 413.5,515C 405.285,510.641 397.118,506.141 389,501.5C 355.644,520.729 322.478,540.062 289.5,559.5C 282.833,559.5 276.167,559.5 269.5,559.5C 236.502,540.03 203.336,520.697 170,501.5C 160.264,507.452 150.097,512.452 139.5,516.5C 137.181,515.936 134.847,515.436 132.5,515C 96.5,494.333 60.5,473.667 24.5,453C 21.4847,450.137 19.6513,446.637 19,442.5C 18.3333,400.833 18.3333,359.167 19,317.5C 19.8642,312.629 22.3642,308.796 26.5,306C 33.3299,302.419 39.9965,298.586 46.5,294.5C 47.3333,253.171 47.8333,211.837 48,170.5C 49.6748,164.159 53.5082,159.659 59.5,157C 92.3828,138.307 125.216,119.474 158,100.5C 158.333,91.1667 158.667,81.8333 159,72.5C 159.742,67.849 161.908,64.0157 165.5,61C 201.06,40.7258 236.393,20.2258 271.5,-0.5 Z M 277.5,39.5 C 280.407,39.5752 283.073,40.4086 285.5,42C 304.866,53.3469 324.199,64.6802 343.5,76C 322.833,87.6667 302.167,99.3333 281.5,111C 278.581,111.552 275.914,110.885 273.5,109C 254.424,97.5999 235.09,86.5999 215.5,76C 236.336,63.9699 257.003,51.8033 277.5,39.5 Z M 196.5,108.5 C 217.635,120.235 238.635,132.235 259.5,144.5C 260.666,169.16 260.833,193.827 260,218.5C 239.117,206.64 218.284,194.64 197.5,182.5C 196.5,157.842 196.167,133.176 196.5,108.5 Z M 361.5,108.5 C 362.829,133.003 362.829,157.67 361.5,182.5C 340.748,194.626 319.915,206.626 299,218.5C 298.333,193.833 298.333,169.167 299,144.5C 319.978,132.599 340.811,120.599 361.5,108.5 Z M 157.5,144.5 C 158.332,161.662 158.832,178.995 159,196.5C 159.759,199.785 161.092,202.785 163,205.5C 198.62,226.726 234.453,247.559 270.5,268C 273.456,268.989 276.456,269.822 279.5,270.5C 282.544,269.822 285.544,268.989 288.5,268C 324.579,247.545 360.412,226.712 396,205.5C 398.11,202.508 399.443,199.175 400,195.5C 400.333,178.5 400.667,161.5 401,144.5C 425.333,158.5 449.667,172.5 474,186.5C 474.833,215.172 474.667,243.839 473.5,272.5C 458.33,263.414 442.997,254.581 427.5,246C 423.259,244.543 418.926,244.209 414.5,245C 380.037,264.066 345.703,283.399 311.5,303C 305.912,305.586 302.079,309.753 300,315.5C 299.333,358.833 299.333,402.167 300,445.5C 301.4,448.902 303.567,451.736 306.5,454C 321.337,462.919 336.337,471.586 351.5,480C 328.167,493.333 304.833,506.667 281.5,520C 280.167,520.667 278.833,520.667 277.5,520C 254.167,506.667 230.833,493.333 207.5,480C 222.663,471.586 237.663,462.919 252.5,454C 255.433,451.736 257.6,448.902 259,445.5C 259.667,402.167 259.667,358.833 259,315.5C 257.65,310.815 254.817,307.315 250.5,305C 215.147,284.967 179.813,264.967 144.5,245C 140.074,244.209 135.741,244.543 131.5,246C 116.036,254.567 100.702,263.4 85.5,272.5C 84.3335,243.839 84.1668,215.172 85,186.5C 109.077,172.237 133.243,158.237 157.5,144.5 Z M 137.5,285.5 C 139.655,285.372 141.655,285.872 143.5,287C 163.199,298.514 182.866,310.014 202.5,321.5C 182.296,333.533 161.963,345.366 141.5,357C 137.887,357.208 134.554,356.208 131.5,354C 113.131,343.152 94.7978,332.319 76.5,321.5C 96.7641,309.208 117.097,297.208 137.5,285.5 Z M 417.5,285.5 C 418.873,285.343 420.207,285.51 421.5,286C 440.801,296.986 460.135,307.986 479.5,319C 481.255,319.72 482.089,320.887 482,322.5C 461.372,334.563 440.539,346.23 419.5,357.5C 398.546,346.356 377.88,334.689 357.5,322.5C 356.167,321.833 356.167,321.167 357.5,320.5C 377.531,308.82 397.531,297.154 417.5,285.5 Z M 55.5,354.5 C 77.1026,365.969 98.4359,377.969 119.5,390.5C 120.666,415.16 120.833,439.827 120,464.5C 98.471,452.406 77.1377,440.072 56,427.5C 55.5,403.169 55.3334,378.836 55.5,354.5 Z M 221.5,354.5 C 222.829,379.003 222.829,403.67 221.5,428.5C 200.538,440.3 179.704,452.3 159,464.5C 158.333,439.833 158.333,415.167 159,390.5C 179.764,378.204 200.597,366.204 221.5,354.5 Z M 336.5,354.5 C 357.689,366.348 378.855,378.348 400,390.5C 400.667,415.167 400.667,439.833 400,464.5C 379.085,452.626 358.252,440.626 337.5,428.5C 336.5,403.842 336.167,379.176 336.5,354.5 Z M 501.5,354.5 C 502.832,366.314 503.499,378.481 503.5,391C 503.333,403.167 503.167,415.333 503,427.5C 481.862,440.072 460.529,452.406 439,464.5C 438.167,439.827 438.334,415.16 439.5,390.5C 460.23,378.473 480.896,366.473 501.5,354.5 Z"/></g>
</svg>
