<?xml version="1.0" encoding="UTF-8"?>
<!DOCTYPE svg PUBLIC "-//W3C//DTD SVG 1.1//EN" "http://www.w3.org/Graphics/SVG/1.1/DTD/svg11.dtd">
<svg xmlns="http://www.w3.org/2000/svg" version="1.1" width="1462px" height="1462px" style="shapeRendering:geometricPrecision; text-rendering:geometricPrecision; image-rendering:optimizeQuality; fill-rule:evenodd; clip-rule:evenodd" xmlns:xlink="http://www.w3.org/1999/xlink">
<g><path style="opacity:0.993" fill="#fff" d="M 680.5,0.5 C 713.168,0.333351 745.835,0.500017 778.5,1C 796.155,0.672918 807.655,8.83958 813,25.5C 818.179,58.2425 823.679,90.9092 829.5,123.5C 843.618,128.476 857.451,134.142 871,140.5C 898.156,121.348 925.323,102.181 952.5,83C 966.195,77.1032 978.862,78.7699 990.5,88C 1013.3,111.805 1036.47,135.305 1060,158.5C 1068.35,170.248 1069.35,182.582 1063,195.5C 1044,222.167 1025,248.833 1006,275.5C 1005.33,276.833 1005.33,278.167 1006,279.5C 1012.57,292.309 1017.74,305.643 1021.5,319.5C 1053.82,324.998 1086.15,330.498 1118.5,336C 1131.15,338.649 1139.31,346.149 1143,358.5C 1144.13,370.947 1144.63,383.447 1144.5,396C 1144.21,420.838 1143.71,445.671 1143,470.5C 1139.82,483.009 1131.99,490.842 1119.5,494C 1086.56,499.935 1053.56,505.435 1020.5,510.5C 1016.1,524.814 1010.43,538.647 1003.5,552C 1023.32,580.489 1043.15,608.989 1063,637.5C 1067.13,649.194 1065.8,660.194 1059,670.5C 1034.4,694.552 1009.9,718.719 985.5,743C 973.574,750.799 961.24,751.466 948.5,745C 921.404,725.705 894.237,706.538 867,687.5C 853.784,693.691 840.284,699.191 826.5,704C 825.874,704.75 825.374,705.584 825,706.5C 819.536,740.284 813.536,773.951 807,807.5C 802.615,816.884 795.448,823.051 785.5,826C 749.5,826.667 713.5,826.667 677.5,826C 663.967,823.467 655.134,815.634 651,802.5C 645.871,773.189 640.871,743.856 636,714.5C 635.622,710.31 634.455,706.476 632.5,703C 618.716,698.191 605.216,692.691 592,686.5C 565.236,704.261 538.736,722.428 512.5,741C 497.766,749.151 483.766,748.151 470.5,738C 446.667,713.5 422.833,689 399,664.5C 393.864,654.465 393.198,644.132 397,633.5C 416.588,605.324 436.421,577.324 456.5,549.5C 449.932,535.702 443.932,521.702 438.5,507.5C 405.512,501.335 372.512,495.168 339.5,489C 325.639,483.128 318.306,472.628 317.5,457.5C 318.32,424.19 318.82,390.856 319,357.5C 321.986,344.515 329.819,336.015 342.5,332C 375.202,326.638 407.869,321.138 440.5,315.5C 445.171,301.824 450.671,288.491 457,275.5C 457.667,274.167 457.667,272.833 457,271.5C 437.505,243.846 418.505,215.846 400,187.5C 396.645,176.679 397.978,166.345 404,156.5C 429.589,129.908 456.089,104.408 483.5,80C 493.986,75.2112 504.32,75.5445 514.5,81C 541.066,100.569 567.899,119.736 595,138.5C 608.44,132.031 622.273,126.531 636.5,122C 643.376,88.621 649.876,55.121 656,21.5C 660.705,10.2838 668.872,3.28385 680.5,0.5 Z M 713.5,65.5 C 727.167,65.5 740.833,65.5 754.5,65.5C 758.791,95.5807 763.625,125.581 769,155.5C 772.41,165.244 778.91,172.077 788.5,176C 814.377,182.774 838.71,193.107 861.5,207C 874.983,211.816 887.316,209.816 898.5,201C 919.833,185.667 941.167,170.333 962.5,155C 963.5,154.333 964.5,154.333 965.5,155C 974.136,164.637 983.136,173.97 992.5,183C 973.717,208.731 955.55,234.897 938,261.5C 936,268.833 936,276.167 938,283.5C 952.382,308.311 963.049,334.644 970,362.5C 974.278,370.111 980.445,375.611 988.5,379C 1018.77,384.6 1049.1,389.767 1079.5,394.5C 1079.5,408.167 1079.5,421.833 1079.5,435.5C 1049.14,440.449 1018.81,445.616 988.5,451C 979.869,453.963 973.369,459.463 969,467.5C 962.171,494.487 951.504,519.82 937,543.5C 932.961,554.659 933.961,565.326 940,575.5C 957.027,599.028 973.861,622.694 990.5,646.5C 981.181,656.319 971.681,665.986 962,675.5C 937.764,657.632 913.264,640.132 888.5,623C 879.902,618.422 870.902,617.422 861.5,620C 837.728,634.038 812.394,644.372 785.5,651C 776.333,654.833 769.833,661.333 766,670.5C 760.291,701.085 755.125,731.752 750.5,762.5C 736.814,762.695 723.147,762.362 709.5,761.5C 704.443,731.491 699.276,701.491 694,671.5C 690.648,662.147 684.481,655.314 675.5,651C 648.294,644.042 622.628,633.376 598.5,619C 588.749,616.315 579.416,617.315 570.5,622C 546.167,638.833 521.833,655.667 497.5,672.5C 488.194,662.86 478.861,653.193 469.5,643.5C 486.473,619.361 503.639,595.361 521,571.5C 526.086,561.8 526.753,551.8 523,541.5C 508.483,517.125 497.816,491.125 491,463.5C 486.9,455.867 480.733,450.7 472.5,448C 442.525,442.305 412.525,436.805 382.5,431.5C 382.5,417.833 382.5,404.167 382.5,390.5C 412.547,385.992 442.547,381.159 472.5,376C 481.131,373.037 487.631,367.537 492,359.5C 498.847,332.483 509.513,307.15 524,283.5C 527.814,272.526 527.147,261.86 522,251.5C 505.5,227.667 489,203.833 472.5,180C 481.833,170.667 491.167,161.333 500.5,152C 524.657,168.445 548.657,185.445 572.5,203C 582.537,208.105 592.87,208.772 603.5,205C 627.212,190.815 652.545,180.481 679.5,174C 689.652,168.872 695.818,160.705 698,149.5C 703.062,121.46 708.228,93.4603 713.5,65.5 Z M 722.5,319.5 C 766.849,319.243 798.682,338.91 818,378.5C 834.384,428.015 821.217,467.515 778.5,497C 740.421,517.214 704.088,514.547 669.5,489C 639.526,462.074 629.026,428.907 638,389.5C 652.167,349.159 680.334,325.825 722.5,319.5 Z"/></g>
<g><path style="opacity:0.993" fill="#fff" d="M 718.5,255.5 C 776.471,253.575 823.305,275.242 859,320.5C 895.357,375.668 899.024,433.001 870,492.5C 835.012,550.251 783.512,577.418 715.5,574C 646.055,565.042 599.889,527.542 577,461.5C 560.306,394.735 577.139,338.235 627.5,292C 654.102,270.522 684.436,258.355 718.5,255.5 Z M 722.5,319.5 C 680.334,325.825 652.167,349.159 638,389.5C 629.026,428.907 639.526,462.074 669.5,489C 704.088,514.547 740.421,517.214 778.5,497C 821.217,467.515 834.384,428.015 818,378.5C 798.682,338.91 766.849,319.243 722.5,319.5 Z"/></g>
<g><path style="opacity:0.993" fill="#fff" d="M 1461.5,981.5 C 1461.5,983.5 1461.5,985.5 1461.5,987.5C 1459.85,1009.28 1452.35,1028.95 1439,1046.5C 1423.68,1065.83 1405.84,1082.33 1385.5,1096C 1249.31,1186.51 1112.31,1275.85 974.5,1364C 938.5,1386 902.5,1408 866.5,1430C 837.299,1447.23 805.966,1457.73 772.5,1461.5C 762.5,1461.5 752.5,1461.5 742.5,1461.5C 709.932,1458.02 678.598,1449.52 648.5,1436C 552.22,1388.19 456.22,1339.86 360.5,1291C 354.275,1288.39 347.942,1286.06 341.5,1284C 327.972,1279.99 314.972,1281.32 302.5,1288C 267.967,1308.54 233.967,1329.88 200.5,1352C 179.65,1359.48 164.484,1353.32 155,1333.5C 151.198,1318.24 155.365,1305.74 167.5,1296C 195.336,1278.58 223.003,1260.92 250.5,1243C 265.262,1233.79 280.928,1226.45 297.5,1221C 320.772,1215.63 343.772,1216.63 366.5,1224C 374.946,1227.06 383.279,1230.39 391.5,1234C 472.167,1275 552.833,1316 633.5,1357C 658.787,1370.81 685.12,1382.14 712.5,1391C 753.699,1403.21 792.699,1398.21 829.5,1376C 858.833,1358.33 888.167,1340.67 917.5,1323C 1061.98,1230.85 1205.64,1137.51 1348.5,1043C 1364.96,1031.54 1379.13,1017.71 1391,1001.5C 1394.62,995.591 1397.12,989.257 1398.5,982.5C 1392.57,964.26 1379.9,955.26 1360.5,955.5C 1340.7,957.701 1321.7,962.868 1303.5,971C 1293.5,976 1283.5,981 1273.5,986C 1170.83,1053.33 1068.17,1120.67 965.5,1188C 943.149,1199.17 919.483,1205.5 894.5,1207C 823.5,1207.67 752.5,1207.67 681.5,1207C 621.271,1201.85 561.937,1191.52 503.5,1176C 479.794,1168.09 471.96,1152.25 480,1128.5C 488.014,1115.91 499.514,1110.41 514.5,1112C 573.331,1127.23 632.998,1137.57 693.5,1143C 761.185,1143.96 828.852,1143.63 896.5,1142C 911.702,1140.71 925.702,1136.04 938.5,1128C 949.121,1120.42 953.787,1110.09 952.5,1097C 953.578,1082.82 948.245,1071.82 936.5,1064C 925.461,1057.1 913.461,1052.76 900.5,1051C 870.854,1049.38 841.187,1048.05 811.5,1047C 745.128,1043.19 681.461,1028.19 620.5,1002C 613.993,997.914 607.66,993.58 601.5,989C 582.061,970.473 563.061,951.473 544.5,932C 515.273,909.025 481.939,896.025 444.5,893C 412.165,889.68 379.831,889.68 347.5,893C 335.983,894.437 324.65,896.77 313.5,900C 285.009,910.608 256.676,921.608 228.5,933C 165.239,960.42 102.239,988.42 39.5,1017C 16.1777,1019.17 3.17768,1008.67 0.5,985.5C 0.678839,974.642 5.01217,965.809 13.5,959C 97.4284,918.367 182.762,881.034 269.5,847C 324.363,827.844 380.696,821.511 438.5,828C 500.132,832.671 554.465,854.671 601.5,894C 618.25,910.415 634.584,927.082 650.5,944C 679.71,957.014 710.043,966.514 741.5,972.5C 801.207,936.297 860.541,899.464 919.5,862C 963.117,833.513 1010.78,822.513 1062.5,829C 1091.15,834.99 1116.15,847.823 1137.5,867.5C 1174.97,854.005 1212.31,854.505 1249.5,869C 1268.25,877.198 1284.25,889.032 1297.5,904.5C 1329.71,890.79 1362.71,888.29 1396.5,897C 1436.15,911.466 1457.82,939.633 1461.5,981.5 Z M 1033.5,890.5 C 1049.14,890.409 1063.8,894.076 1077.5,901.5C 1031,930.917 984.335,960.084 937.5,989C 935.487,990.257 933.321,991.091 931,991.5C 920.962,988.966 910.795,987.133 900.5,986C 883.141,985.157 865.807,984.157 848.5,983C 887.002,959.25 925.335,935.25 963.5,911C 985.635,899.561 1008.97,892.727 1033.5,890.5 Z M 1180.5,922.5 C 1199.79,920.657 1217.79,924.49 1234.5,934C 1161.58,981.709 1088.75,1029.54 1016,1077.5C 1012.13,1059.93 1004.63,1044.09 993.5,1030C 1044.67,998.584 1095.67,966.917 1146.5,935C 1157.62,929.929 1168.95,925.763 1180.5,922.5 Z"/></g>
</svg>
