<?xml version="1.0" standalone="no"?>
<!DOCTYPE svg PUBLIC "-//W3C//DTD SVG 20010904//EN"
 "http://www.w3.org/TR/2001/REC-SVG-20010904/DTD/svg10.dtd">
<svg version="1.0" xmlns="http://www.w3.org/2000/svg"
 width="662.000000pt" height="582.000000pt" viewBox="0 0 662.000000 582.000000"
 preserveAspectRatio="xMidYMid meet">

<g transform="translate(0.000000,582.000000) scale(0.100000,-0.100000)"
fill="#ffffff" stroke="none">
<path d="M10 2905 l0 -2905 3300 0 3300 0 -2 2903 -3 2902 -3297 3 -3298 2 0
-2905z m6030 -5 l0 -2330 -2730 0 -2730 0 0 2330 0 2330 2730 0 2730 0 0
-2330z"/>
<path d="M1422 4952 c-37 -35 -45 -72 -40 -196 3 -93 4 -97 36 -128 l32 -33
1843 -3 c1369 -2 1849 1 1870 9 58 24 67 49 67 186 l0 125 -34 34 -34 34
-1855 0 -1855 0 -30 -28z"/>
<path d="M1465 4520 c-11 -4 -31 -20 -45 -35 -23 -24 -25 -35 -28 -140 -3 -89
0 -119 12 -144 16 -29 16 -31 -2 -31 -14 0 -60 -72 -180 -283 -89 -156 -162
-287 -162 -290 0 -4 22 -18 50 -32 43 -22 63 -25 147 -25 54 0 105 -5 113 -10
13 -8 16 -105 20 -742 l5 -733 1235 0 1235 0 3 588 2 587 403 -2 402 -3 3
-597 2 -598 275 0 275 0 0 705 0 706 25 50 26 50 97 -2 97 -2 39 61 38 62
-128 255 -129 255 -37 0 c-40 0 -46 8 -26 28 7 7 14 51 16 110 4 119 -9 167
-57 199 l-34 23 -1836 -1 c-1010 0 -1845 -4 -1856 -9z m526 -455 c3 -2 -36
-125 -85 -272 l-91 -268 -50 -25 c-91 -46 -301 -38 -320 12 -5 12 163 520 180
548 6 10 357 15 366 5z m759 -14 c0 -35 -81 -505 -90 -522 -26 -48 -221 -77
-304 -45 -25 9 -49 23 -56 31 -8 10 -1 74 30 262 22 136 42 258 45 271 5 22 7
22 190 22 174 0 185 -1 185 -19z m740 -256 l0 -275 -42 -22 c-37 -20 -58 -23
-143 -23 -85 0 -106 3 -142 23 l-43 22 0 275 0 275 185 0 185 0 0 -275z m784
248 c3 -16 24 -138 46 -273 l40 -245 -21 -17 c-47 -39 -175 -50 -266 -23 -90
27 -87 21 -133 296 -22 135 -40 255 -40 267 0 22 2 22 184 22 l184 0 6 -27z
m843 -248 c51 -148 90 -276 88 -283 -16 -45 -199 -59 -298 -22 -30 11 -60 27
-66 34 -16 20 -191 533 -183 540 3 4 87 5 186 4 l181 -3 92 -270z m-1777
-1010 l0 -445 -710 0 -710 0 0 438 c0 241 3 442 7 445 3 4 323 7 710 7 l703 0
0 -445z"/>
<path d="M3377 1710 c-80 -14 -172 -64 -235 -127 -181 -182 -174 -469 16 -643
221 -204 569 -134 701 140 35 73 36 78 36 190 0 109 -2 119 -32 183 -44 92
-119 169 -207 212 -103 51 -175 62 -279 45z"/>
<path d="M4735 1279 c-107 -215 -195 -395 -195 -400 0 -5 172 -9 415 -9 l415
0 -200 400 c-163 326 -204 400 -220 400 -16 0 -56 -73 -215 -391z"/>
<path d="M1272 1258 l3 -353 405 0 405 0 3 353 2 352 -410 0 -410 0 2 -352z"/>
</g>
</svg>
